<?xml version="1.0" encoding="UTF-8"?>
<svg id="Layer_1" data-name="Layer 1" xmlns="http://www.w3.org/2000/svg" viewBox="0 0 835.94 611.66">
  <defs>
    <style>
      .cls-1 {
        fill: none;
      }

      .cls-1, .cls-2, .cls-3, .cls-4, .cls-5 {
        stroke-miterlimit: 10;
      }

      .cls-1, .cls-4 {
        stroke: #231f20;
      }

      .cls-2 {
        fill: #bcbec0;
        stroke: #fff;
      }

      .cls-3 {
        fill: #262262;
      }

      .cls-3, .cls-5 {
        stroke: #262262;
      }

      .cls-4, .cls-5 {
        fill: #fff;
      }
    </style>
  </defs>
  <rect class="cls-5" x=".5" y=".5" width="792" height="600"/>
  <line class="cls-1" x1="237.73" y1="611.16" x2="233.48" y2="611.16"/>
  <g>
    <rect class="cls-3" x="348.56" y="273.35" width="95.74" height="53.36" rx="18.79" ry="18.79"/>
    <rect class="cls-4" x="366.35" y="281.29" width="61" height="38" rx="18.79" ry="18.79"/>
    <rect class="cls-3" x="320.08" y="273.35" width="20" height="54.29" rx="8.34" ry="8.34"/>
    <rect class="cls-3" x="452.78" y="273.35" width="20" height="53.36" rx="7.49" ry="7.49"/>
    <ellipse class="cls-3" cx="383.71" cy="300.5" rx="5" ry="4.96"/>
    <circle class="cls-3" cx="410.38" cy="300.37" r="5"/>
    <ellipse class="cls-5" cx="344.35" cy="300.29" rx="2.22" ry="5"/>
    <ellipse class="cls-5" cx="449" cy="300.79" rx="2.22" ry="5"/>
    <line class="cls-2" x1="330.08" y1="272.84" x2="330.08" y2="328.16"/>
    <line class="cls-2" x1="462.78" y1="273.74" x2="462.78" y2="326.15"/>
    <line class="cls-2" x1="472.92" y1="305.05" x2="462.89" y2="319.63"/>
    <line class="cls-2" x1="340.16" y1="293.19" x2="330.23" y2="306.87"/>
    <line class="cls-2" x1="339.95" y1="306.62" x2="330.03" y2="320.3"/>
    <line class="cls-2" x1="340.35" y1="280.54" x2="330.43" y2="294.22"/>
    <line class="cls-2" x1="330.03" y1="320.3" x2="320.08" y2="306.43"/>
    <line class="cls-2" x1="330.23" y1="294.22" x2="320.08" y2="280.31"/>
    <line class="cls-2" x1="330.23" y1="306.87" x2="320.08" y2="294.11"/>
    <line class="cls-2" x1="472.78" y1="290.58" x2="463.03" y2="304.49"/>
    <line class="cls-2" x1="472.63" y1="279.32" x2="462.78" y2="293.64"/>
    <line class="cls-2" x1="452.78" y1="280.84" x2="462.78" y2="293.64"/>
    <line class="cls-2" x1="452.78" y1="291.17" x2="463.03" y2="305.08"/>
    <line class="cls-2" x1="462.89" y1="319.63" x2="452.78" y2="305.53"/>
  </g>
  <text/>
</svg>